<?xml version="1.0" encoding="UTF-8"?>
<svg id="Layer_1" xmlns="http://www.w3.org/2000/svg" version="1.1" viewBox="0 0 300 142">
  <!-- Generator: Adobe Illustrator 29.6.1, SVG Export Plug-In . SVG Version: 2.1.1 Build 9)  -->
  <defs>
    <style>
      .st0 {
        fill: #ff8b00;
      }
    </style>
  </defs>
  <g>
    <g>
      <path class="st0" d="M76.4,100.5c-24.5-2.6-40.8-9.7-42.7-20.5-3.6-20.3,45.4-45.9,109.5-57.2,20.9-3.7,40.8-5.4,58.3-5.3,0-.3,0-.7,0-1,0-1.4.2-2.8.5-4.1-19.1.3-39.9,2.3-61.6,6.1C57.8,33-5,69,.3,98.8c3.4,19.3,34.4,31.2,78.2,33.3-3.9-4.7-6.3-10.7-6.3-17.3s1.5-10.3,4.2-14.4Z"/>
      <path class="st0" d="M299.7,45.9c-3.1-17.4-28.7-28.9-66-32.5.2.9.3,1.9.3,2.9s-.1,2.5-.4,3.6c18.6,3.3,30.6,9.8,32.2,19,3.6,20.3-45.4,45.9-109.5,57.2-11.8,2.1-23.3,3.5-34.2,4.4,2.6,4.1,4.1,9,4.1,14.3s-2.1,11.9-5.6,16.5c12.6-1,25.6-2.6,39-5,82.7-14.6,145.4-50.6,140.2-80.4Z"/>
    </g>
    <circle class="st0" cx="222.7" cy="16.4" r="16.2"/>
    <circle class="st0" cx="88.9" cy="114.9" r="27"/>
  </g>
  <g>
    <path class="st0" d="M73.6,68.4c-2.9,1.7-7.4,3.6-12.3,3.6-7,0-12.1-3.9-10.2-12.5,1.6-7.2,7.8-13,16.4-13s11,3.2,9.2,11h-9.1c.4-2,0-2.7-1.4-2.7s-2.5,1.1-3.2,4.3.3,4.4,2.4,4.4,4.6-.8,7.5-1.9l.8,6.8Z"/>
    <path class="st0" d="M99.4,69.5c-3.5,1.6-7,2.5-11.6,2.5-8.5,0-12-5.1-10.4-12.5,1.7-7.9,8-13,16.3-13s11.4,3.7,9.8,11.2c-.2,1-.7,3-1.1,3.8h-13.6c-.2,1.3,0,2.8,2.3,2.8s4.2-.4,7.8-1.2l.5,6.4ZM93.2,56.7c.4-2,.2-2.8-1-2.8s-1.9.9-2.4,2.8h3.3Z"/>
    <path class="st0" d="M117.3,49.9c1.6-2,3.4-3.4,5.4-3.4s2.1.3,2.8.7v9.2c-1.2-1.5-7.4-4.3-8.6.8l-3.1,14.3h-11.2l5.4-24.4h8.6l.7,2.8Z"/>
    <path class="st0" d="M135.5,47.1v13.8h.2l6-13.8h10.6l-13.2,24.4h-12v-24.4h8.4Z"/>
    <path class="st0" d="M170.3,69.5c-3.5,1.6-7,2.5-11.6,2.5-8.5,0-12-5.1-10.4-12.5,1.7-7.9,8-13,16.3-13s11.4,3.7,9.8,11.2-.7,3-1.1,3.8h-13.6c-.2,1.3,0,2.8,2.3,2.8s4.2-.4,7.8-1.2l.5,6.4ZM164.2,56.7c.4-2,.2-2.8-1-2.8s-1.9.9-2.4,2.8h3.3Z"/>
    <path class="st0" d="M188.2,49.9c1.6-2,3.4-3.4,5.4-3.4s2.1.3,2.8.7l-2.7,9.2c-1.1-.3-1.6-.4-2.8-.4s-2.3.4-3.2,1.1l-3.1,14.3h-11.2l5.4-24.4h8.6l.7,2.8Z"/>
    <path class="st0" d="M198,61.7c2,1.7,4.8,2.9,6.2,2.9s.9-.2,1-.7-.6-.6-2.8-1.4c-4.3-1.6-7.1-3.1-6.1-7.8,1.2-5.6,6.7-8.2,13.1-8.2s8,1.3,10.5,3.4l-4.9,5.7c-1.9-1.1-4.2-2.1-5.6-2.1s-1.1.3-1.2.6.5.8,3.3,1.8c4.6,1.6,6.3,3.6,5.5,7.5-1.2,5.6-6.1,8.6-13.1,8.6s-9-1.7-11.7-4.9l5.8-5.4Z"/>
    <path class="st0" d="M241.2,69.5c-3.5,1.6-7,2.5-11.6,2.5-8.5,0-12-5.1-10.4-12.5,1.7-7.9,8-13,16.3-13s11.4,3.7,9.8,11.2-.7,3-1.1,3.8h-13.6c-.2,1.3,0,2.8,2.3,2.8s4.2-.4,7.8-1.2l.5,6.4ZM235,56.7c.4-2,.2-2.8-1-2.8s-1.9.9-2.4,2.8h3.3Z"/>
  </g>
</svg>